<svg width="259" height="32" viewBox="0 0 259 32" fill="none" xmlns="http://www.w3.org/2000/svg">
<path d="M170.239 0.546745H176.604L182.866 16.9892L189.2 0.546745H195.497V24.0242H191.519V4.52005H191.45L184.324 24.0108H181.409L174.279 4.52005H174.21V24.0108H170.236V0.546745H170.239Z" fill="white"/>
<path d="M201.656 17.4519C201.731 18.5191 202.227 19.513 203.037 20.2134C203.848 20.8804 204.873 21.234 205.923 21.2073C206.801 21.254 207.675 21.0539 208.446 20.6314C209.122 20.2245 209.72 19.702 210.218 19.0883L213.049 21.2295C212.228 22.2923 211.159 23.135 209.932 23.6842C208.789 24.1689 207.559 24.4179 206.318 24.4113C205.167 24.4179 204.022 24.2178 202.939 23.8176C200.869 23.0794 199.201 21.5097 198.336 19.4908C197.433 17.294 197.433 14.8282 198.336 12.6314C199.201 10.6125 200.871 9.04278 202.939 8.3046C204.019 7.90437 205.164 7.70426 206.318 7.71093C207.363 7.69537 208.4 7.89326 209.367 8.29126C210.265 8.66702 211.07 9.23622 211.719 9.96329C212.404 10.7526 212.922 11.6709 213.242 12.6648C213.622 13.8543 213.809 15.0972 213.789 16.3468V17.4385L201.654 17.4519H201.656ZM209.827 14.4724C209.858 13.4408 209.46 12.4402 208.731 11.7109C207.919 11.0016 206.861 10.6392 205.785 10.7037C204.731 10.637 203.697 11.0039 202.921 11.722C202.194 12.4713 201.743 13.4452 201.647 14.4836L209.827 14.4747V14.4724Z" fill="white"/>
<path d="M229.429 21.632H229.364C228.837 22.5614 228.033 23.3018 227.063 23.7487C226.074 24.1934 225 24.4202 223.915 24.4113C222.783 24.4335 221.658 24.2134 220.62 23.7665C218.712 22.9282 217.249 21.3207 216.591 19.3418C216.231 18.2857 216.05 17.1762 216.062 16.06C216.05 14.9416 216.242 13.8299 216.624 12.7782C216.978 11.8021 217.511 10.9038 218.198 10.1256C218.879 9.37185 219.708 8.76707 220.633 8.35351C221.613 7.91549 222.676 7.69537 223.75 7.70871C224.419 7.69981 225.089 7.77763 225.738 7.93995C226.267 8.0778 226.779 8.27791 227.261 8.53805C227.997 8.92716 228.642 9.46968 229.153 10.1256H229.249V0H233.227V24.0111H229.447L229.429 21.632ZM220.015 16.0622C220.015 16.6737 220.122 17.2807 220.333 17.8521C220.533 18.4168 220.846 18.9349 221.253 19.3752C221.667 19.8243 222.169 20.1845 222.727 20.4335C224.564 21.274 226.732 20.8471 228.113 19.3752C228.52 18.9349 228.833 18.4168 229.033 17.8521C229.456 16.6959 229.456 15.4263 229.033 14.2701C228.831 13.7054 228.52 13.1873 228.113 12.747C226.712 11.3085 224.568 10.8882 222.727 11.6887C222.169 11.9377 221.669 12.2979 221.253 12.747C220.846 13.1873 220.535 13.7054 220.333 14.2701C220.122 14.8438 220.015 15.4508 220.015 16.06V16.0622Z" fill="white"/>
<path d="M236.586 2.70137C236.586 2.06991 236.842 1.46513 237.3 1.02933C237.778 0.553512 238.434 0.293368 239.11 0.315602C239.788 0.295591 240.449 0.540171 240.951 0.995979C241.894 1.84978 241.965 3.30614 241.111 4.24666C241.06 4.30225 241.007 4.35561 240.951 4.40675C240.449 4.86478 239.788 5.10936 239.11 5.08713C238.434 5.10936 237.78 4.85144 237.3 4.3734C236.842 3.9376 236.584 3.3306 236.586 2.69692V2.70137ZM237.153 8.10658H241.131V24.0154H237.153V8.10658Z" fill="white"/>
<path d="M254.981 21.8298H254.885C254.363 22.6859 253.605 23.3707 252.7 23.7998C251.784 24.2156 250.788 24.4246 249.78 24.4113C249.058 24.4113 248.337 24.3134 247.639 24.1156C246.977 23.9266 246.354 23.6242 245.798 23.2173C245.26 22.8215 244.813 22.3123 244.491 21.7253C244.148 21.085 243.977 20.3668 243.993 19.6397C243.968 18.8793 244.126 18.1234 244.453 17.4341C244.751 16.8404 245.176 16.3201 245.696 15.911C246.238 15.4863 246.85 15.155 247.501 14.9305C248.195 14.6859 248.911 14.5036 249.638 14.3835C250.378 14.2634 251.126 14.1856 251.875 14.1523C252.631 14.1211 253.333 14.1011 253.996 14.1011H254.99V13.672C255.05 12.7937 254.661 11.9466 253.954 11.4219C253.182 10.8994 252.264 10.637 251.335 10.677C250.527 10.6748 249.729 10.8304 248.982 11.1373C248.288 11.4174 247.655 11.8265 247.112 12.3424L245.022 10.2523C245.883 9.36073 246.945 8.68925 248.119 8.2957C249.307 7.8977 250.55 7.69759 251.801 7.70203C252.764 7.67758 253.727 7.80654 254.652 8.08002C255.346 8.29347 255.995 8.62699 256.575 9.06056C257.06 9.43188 257.46 9.90325 257.749 10.4413C258.018 10.9372 258.218 11.4663 258.347 12.0155C258.465 12.5203 258.536 13.0361 258.563 13.5542C258.563 14.0522 258.594 14.4747 258.594 14.866V24.0133H255.012L254.974 21.8276L254.981 21.8298ZM254.752 16.8893H253.923C253.371 16.8893 252.749 16.8893 252.082 16.9538C251.426 16.9938 250.774 17.1006 250.138 17.2718C249.585 17.4141 249.062 17.6609 248.6 17.9988C248.179 18.3146 247.944 18.8193 247.968 19.344C247.962 19.6686 248.046 19.9888 248.217 20.2645C248.386 20.5202 248.606 20.7426 248.862 20.9138C249.142 21.0961 249.456 21.2228 249.783 21.2918C250.109 21.3696 250.443 21.4074 250.776 21.4074C252.157 21.4074 253.156 21.085 253.805 20.4313C254.485 19.7131 254.839 18.7481 254.785 17.7609L254.748 16.8916L254.752 16.8893Z" fill="white"/>
<path d="M12.2623 11.6643V11.5954C14.6837 10.8683 16.3401 9.10957 16.3401 6.457C16.3401 2.1813 12.6937 0.555955 9.14506 0.555955H0V24.0334H8.45134C12.8938 24.0334 17.3363 22.4414 17.3363 17.3363C17.3941 14.4081 15.1795 11.9334 12.2623 11.6643ZM4.17564 4.13794H7.62422C10.7726 4.13794 12.1667 5.13182 12.1667 7.15294C12.1667 8.91169 10.786 10.1035 7.98664 10.1035H4.17564V4.13794ZM8.02444 20.4492H4.17564V13.6877H8.20009C11.5797 13.6877 13.1717 14.5481 13.1717 17.0028C13.1628 20.0868 10.179 20.4514 8.02444 20.4514V20.4492ZM35.3595 7.74215C30.5547 7.74215 26.7059 11.0884 26.7059 16.0934C26.7059 21.0984 30.5547 24.4492 35.3595 24.4492C40.1644 24.4492 44.0043 21.094 44.0043 16.0712C44.0043 11.0484 40.16 7.74437 35.3595 7.74437V7.74215ZM35.3595 20.8672C32.4402 20.8672 30.6814 18.5659 30.6814 16.0934C30.6814 13.621 32.4357 11.3019 35.3595 11.3019C38.2834 11.3019 40.031 13.6032 40.031 16.0712C40.031 18.5392 38.2723 20.845 35.3595 20.845V20.8672ZM54.4523 7.74215C49.6474 7.74215 45.8031 11.0884 45.8031 16.0934C45.8031 21.0984 49.6474 24.4492 54.4523 24.4492C59.2572 24.4492 63.106 21.1029 63.106 16.0934C63.106 11.084 59.2572 7.74215 54.4523 7.74215ZM54.4523 20.8672C51.5374 20.8672 49.7809 18.5659 49.7809 16.0934C49.7809 13.621 51.5396 11.3241 54.4523 11.3241C57.365 11.3241 59.1305 13.6254 59.1305 16.0934C59.1305 18.5615 57.3717 20.845 54.4523 20.845V20.8672ZM90.1988 14.5704V24.0534H86.2166V15.0128C86.2166 13.0251 85.6229 11.2975 83.2705 11.2975C80.7847 11.2975 79.8553 13.3541 79.8553 15.4086V24.0312H75.8686V14.5481C75.8686 12.5915 75.0726 11.2975 73.1471 11.2975C70.5323 11.2975 69.5006 13.2207 69.5006 15.3441V24.0312H65.5229V8.11569H69.3028V10.6015H69.3672C70.0765 9.12291 71.5996 7.74215 74.2522 7.74215C76.7069 7.74215 78.3944 8.70046 79.2238 10.6927C80.3844 8.66266 82.0743 7.74215 84.4622 7.74215C88.7068 7.74215 90.1988 10.7349 90.1988 14.5459V14.5681V14.5704ZM102.904 7.74215C99.9152 7.74215 98.3277 9.12291 97.4983 10.159H97.3961V0.0312209H93.4183V24.0556H97.1982V21.6387H97.2627C98.4277 23.562 100.513 24.4003 102.737 24.4003C107.64 24.4003 110.59 20.7538 110.59 16.0445C110.59 11.3352 107.442 7.73993 102.901 7.73993L102.904 7.74215ZM101.943 20.8672C99.0236 20.8672 97.2649 18.5659 97.2649 16.0934C97.2649 13.621 99.0236 11.3241 101.943 11.3241C104.862 11.3241 106.614 13.6254 106.614 16.0934C106.614 18.5615 104.869 20.845 101.943 20.845V20.8672ZM121.04 7.74215C116.235 7.74215 112.391 11.0884 112.391 16.0934C112.391 21.0984 116.235 24.4492 121.04 24.4492C123.659 24.5136 126.156 23.333 127.771 21.2674L124.92 19.1129C123.926 20.4781 122.332 21.2807 120.644 21.2674C118.437 21.3408 116.558 19.6687 116.378 17.4653H128.513V16.3691C128.504 10.835 125.485 7.74215 121.042 7.74215H121.04ZM116.378 14.4814C116.678 12.1802 118.136 10.7016 120.489 10.7016C122.975 10.7016 124.498 12.1557 124.531 14.4814H116.378ZM139.855 7.74215C140.338 7.75104 140.818 7.82887 141.278 7.97339V11.8222C140.653 11.6421 140.009 11.542 139.359 11.522C135.613 11.522 135.084 14.6704 135.084 15.5309V24.0512H131.11V8.11569H135.088V10.6326H135.152C136.011 8.82275 137.856 7.69101 139.857 7.74215H139.855ZM155.212 8.13793V10.5037H155.144C153.983 8.58039 151.897 7.74215 149.674 7.74215C144.767 7.74215 141.816 11.3886 141.816 16.0934C141.816 20.7983 144.969 24.2513 149.738 24.2513C151.726 24.2513 153.785 23.4864 154.946 21.95H155.01V23.1106C155.01 26.2591 153.818 28.4469 149.974 28.4469C147.751 28.4469 146.094 27.6176 144.504 26.1457L142.105 29.3808C144.36 31.3685 147.046 32 149.996 32C156.197 32 158.981 28.3535 158.981 22.6193V8.11569L155.21 8.13793H155.212ZM150.443 20.6315C147.902 20.6693 145.809 18.6393 145.772 16.0979C145.772 16.0756 145.772 16.0512 145.772 16.029C145.772 13.2118 147.691 11.2886 150.477 11.2886C153.263 11.2886 155.186 13.2118 155.186 15.9667C155.204 18.6282 153.414 20.6337 150.445 20.6337L150.443 20.6315ZM24.04 0.00453949V24.0289H20.0266V0.00453949H24.04Z" fill="white"/>
</svg>
